<?xml version="1.0" encoding="UTF-8"?>
<!DOCTYPE svg PUBLIC "-//W3C//DTD SVG 1.1//EN" "http://www.w3.org/Graphics/SVG/1.1/DTD/svg11.dtd">
<svg xmlns="http://www.w3.org/2000/svg" version="1.1" width="512px" height="512px" style="shape-rendering:geometricPrecision; text-rendering:geometricPrecision; image-rendering:optimizeQuality; fill-rule:evenodd; clip-rule:evenodd" xmlns:xlink="http://www.w3.org/1999/xlink">
<g><path style="opacity:1" fill="#020d14" d="M -0.5,-0.5 C 170.167,-0.5 340.833,-0.5 511.5,-0.5C 511.5,170.167 511.5,340.833 511.5,511.5C 340.833,511.5 170.167,511.5 -0.5,511.5C -0.5,340.833 -0.5,170.167 -0.5,-0.5 Z"/></g>
<g><path style="opacity:1" fill="#33664b" d="M 265.5,113.5 C 252.811,113.292 240.144,113.626 227.5,114.5C 228.952,113.698 230.618,113.198 232.5,113C 243.674,112.174 254.674,112.341 265.5,113.5 Z"/></g>
<g><path style="opacity:1" fill="#2e5e47" d="M 265.5,113.5 C 271.845,113.224 277.845,114.224 283.5,116.5C 277.31,115.857 271.31,114.857 265.5,113.5 Z"/></g>
<g><path style="opacity:1" fill="#539f6d" d="M 221.5,115.5 C 218.495,117.277 215.162,118.277 211.5,118.5C 214.505,116.723 217.838,115.723 221.5,115.5 Z"/></g>
<g><path style="opacity:1" fill="#5aad76" d="M 210.5,118.5 C 208.898,120.074 206.898,120.741 204.5,120.5C 206.102,118.926 208.102,118.259 210.5,118.5 Z"/></g>
<g><path style="opacity:1" fill="#84f5a2" d="M 265.5,113.5 C 271.31,114.857 277.31,115.857 283.5,116.5C 285.905,117.768 288.572,118.435 291.5,118.5C 294.939,120.204 298.605,121.538 302.5,122.5C 304.421,123.363 306.421,124.029 308.5,124.5C 308.414,125.496 308.748,126.329 309.5,127C 270.162,127.833 230.829,127.667 191.5,126.5C 193.184,125.85 194.517,124.85 195.5,123.5C 198.145,121.69 201.145,120.69 204.5,120.5C 206.898,120.741 208.898,120.074 210.5,118.5C 210.833,118.5 211.167,118.5 211.5,118.5C 215.162,118.277 218.495,117.277 221.5,115.5C 223.435,114.85 225.435,114.517 227.5,114.5C 240.144,113.626 252.811,113.292 265.5,113.5 Z"/></g>
<g><path style="opacity:1" fill="#204135" d="M 291.5,118.5 C 294.522,118.804 297.522,119.304 300.5,120C 301.381,120.708 302.047,121.542 302.5,122.5C 298.605,121.538 294.939,120.204 291.5,118.5 Z"/></g>
<g><path style="opacity:1" fill="#7ef1a4" d="M 195.5,123.5 C 194.517,124.85 193.184,125.85 191.5,126.5C 230.829,127.667 270.162,127.833 309.5,127C 308.748,126.329 308.414,125.496 308.5,124.5C 317.353,128.422 325.687,133.089 333.5,138.5C 334.357,139.802 334.857,141.135 335,142.5C 323.955,141.856 312.789,141.856 301.5,142.5C 291.732,139.224 281.732,136.557 271.5,134.5C 267.817,132.75 263.817,132.083 259.5,132.5C 251.493,132.334 243.493,132.5 235.5,133C 231.867,133.149 228.534,133.982 225.5,135.5C 224.833,135.5 224.167,135.5 223.5,135.5C 219.838,135.723 216.505,136.723 213.5,138.5C 208.654,139.227 203.987,140.56 199.5,142.5C 188.874,141.75 178.708,141.75 169,142.5C 167.198,140.727 167.365,139.06 169.5,137.5C 174.768,133.524 180.434,130.024 186.5,127C 189.293,125.346 192.293,124.179 195.5,123.5 Z"/></g>
<g><path style="opacity:1" fill="#55a876" d="M 259.5,133.5 C 259.5,133.167 259.5,132.833 259.5,132.5C 263.817,132.083 267.817,132.75 271.5,134.5C 267.519,133.979 263.519,133.646 259.5,133.5 Z"/></g>
<g><path style="opacity:1" fill="#254d3d" d="M 259.5,132.5 C 259.5,132.833 259.5,133.167 259.5,133.5C 248.093,133.155 236.759,133.822 225.5,135.5C 228.534,133.982 231.867,133.149 235.5,133C 243.493,132.5 251.493,132.334 259.5,132.5 Z"/></g>
<g><path style="opacity:1" fill="#22493b" d="M 223.5,135.5 C 220.495,137.277 217.162,138.277 213.5,138.5C 216.505,136.723 219.838,135.723 223.5,135.5 Z"/></g>
<g><path style="opacity:1" fill="#1d3f34" d="M 213.5,138.5 C 209.089,140.697 204.422,142.364 199.5,143.5C 199.5,143.167 199.5,142.833 199.5,142.5C 203.987,140.56 208.654,139.227 213.5,138.5 Z"/></g>
<g><path style="opacity:1" fill="#76eea8" d="M 169.5,137.5 C 167.365,139.06 167.198,140.727 169,142.5C 178.708,141.75 188.874,141.75 199.5,142.5C 199.5,142.833 199.5,143.167 199.5,143.5C 196.843,143.935 194.509,144.935 192.5,146.5C 190.326,146.75 188.659,147.75 187.5,149.5C 181.582,152.746 175.915,156.413 170.5,160.5C 161.318,160.827 152.318,160.493 143.5,159.5C 150.695,150.295 159.361,142.962 169.5,137.5 Z"/></g>
<g><path style="opacity:1" fill="#75eca7" d="M 333.5,138.5 C 343.045,144.373 351.378,151.707 358.5,160.5C 350.224,160.21 341.724,160.543 333,161.5C 332.184,160.177 331.017,159.511 329.5,159.5C 320.454,153.313 311.121,147.646 301.5,142.5C 312.789,141.856 323.955,141.856 335,142.5C 334.857,141.135 334.357,139.802 333.5,138.5 Z"/></g>
<g><path style="opacity:1" fill="#244b3c" d="M 192.5,146.5 C 191.514,148.408 189.848,149.408 187.5,149.5C 188.659,147.75 190.326,146.75 192.5,146.5 Z"/></g>
<g><path style="opacity:1" fill="#3a795b" d="M 235.5,153.5 C 232.054,154.687 228.387,155.354 224.5,155.5C 227.845,153.783 231.511,153.116 235.5,153.5 Z"/></g>
<g><path style="opacity:1" fill="#71edad" d="M 307.5,168.5 C 306.526,170.085 305.026,171.085 303,171.5C 267.638,171.324 232.638,171.324 198,171.5C 196.271,171.026 195.105,170.026 194.5,168.5C 196.734,166.11 199.401,164.276 202.5,163C 209.805,160.177 217.138,157.677 224.5,155.5C 228.387,155.354 232.054,154.687 235.5,153.5C 261.043,150.539 285.043,155.539 307.5,168.5 Z"/></g>
<g><path style="opacity:1" fill="#69e8af" d="M 143.5,159.5 C 152.318,160.493 161.318,160.827 170.5,160.5C 156.303,172.254 144.97,186.254 136.5,202.5C 129.087,203.128 122.087,202.461 115.5,200.5C 122.117,184.917 131.451,171.25 143.5,159.5 Z"/></g>
<g><path style="opacity:1" fill="#6ae9af" d="M 194.5,168.5 C 195.105,170.026 196.271,171.026 198,171.5C 232.638,171.324 267.638,171.324 303,171.5C 305.026,171.085 306.526,170.085 307.5,168.5C 313.116,172.115 318.45,176.115 323.5,180.5C 323.414,181.496 323.748,182.329 324.5,183C 314.506,183.5 304.506,183.666 294.5,183.5C 292.833,182.833 291.167,182.167 289.5,181.5C 289.027,180.094 288.027,179.427 286.5,179.5C 270.196,173.003 253.196,170.837 235.5,173C 232.708,173.542 230.042,174.376 227.5,175.5C 224.284,175.345 221.617,176.345 219.5,178.5C 214.645,179.592 209.978,181.259 205.5,183.5C 195.917,183.182 186.417,183.515 177,184.5C 176.333,183.833 176.333,183.167 177,182.5C 178.707,180.963 180.207,179.296 181.5,177.5C 185.001,173.338 189.335,170.338 194.5,168.5 Z"/></g>
<g><path style="opacity:1" fill="#69e8af" d="M 329.5,159.5 C 331.017,159.511 332.184,160.177 333,161.5C 341.724,160.543 350.224,160.21 358.5,160.5C 371.305,172.088 380.638,186.088 386.5,202.5C 379.137,202.831 371.803,202.497 364.5,201.5C 355.705,185.044 344.038,171.044 329.5,159.5 Z"/></g>
<g><path style="opacity:1" fill="#224f42" d="M 227.5,175.5 C 225.064,176.871 222.397,177.871 219.5,178.5C 221.617,176.345 224.284,175.345 227.5,175.5 Z"/></g>
<g><path style="opacity:1" fill="#337861" d="M 286.5,179.5 C 288.027,179.427 289.027,180.094 289.5,181.5C 287.973,181.573 286.973,180.906 286.5,179.5 Z"/></g>
<g><path style="opacity:1" fill="#62e3b1" d="M 181.5,177.5 C 180.207,179.296 178.707,180.963 177,182.5C 176.333,183.167 176.333,183.833 177,184.5C 186.417,183.515 195.917,183.182 205.5,183.5C 197.822,188.708 190.822,194.874 184.5,202C 176.147,202.832 167.813,202.665 159.5,201.5C 165.12,191.882 172.453,183.882 181.5,177.5 Z"/></g>
<g><path style="opacity:1" fill="#62e3b1" d="M 323.5,180.5 C 330.666,186.497 336.666,193.497 341.5,201.5C 333.187,202.665 324.853,202.832 316.5,202C 309.651,195.102 302.318,188.935 294.5,183.5C 304.506,183.666 314.506,183.5 324.5,183C 323.748,182.329 323.414,181.496 323.5,180.5 Z"/></g>
<g><path style="opacity:1" fill="#133331" d="M 115.5,200.5 C 122.087,202.461 129.087,203.128 136.5,202.5C 129.352,203.492 122.019,203.825 114.5,203.5C 114.263,202.209 114.596,201.209 115.5,200.5 Z"/></g>
<g><path style="opacity:1" fill="#f9fafa" d="M 159.5,249.5 C 156.167,249.5 152.833,249.5 149.5,249.5C 151.207,239.883 152.541,230.216 153.5,220.5C 153.963,217.518 154.296,214.518 154.5,211.5C 161.532,211.17 168.532,211.503 175.5,212.5C 170.14,224.946 164.806,237.279 159.5,249.5 Z"/></g>
<g><path style="opacity:1" fill="#363f44" d="M 102.5,216.5 C 91.5,216.5 80.5,216.5 69.5,216.5C 69.2627,217.791 69.596,218.791 70.5,219.5C 70.5,220.833 70.5,222.167 70.5,223.5C 68.9605,221.162 68.2938,218.495 68.5,215.5C 80.0123,215.172 91.3456,215.505 102.5,216.5 Z"/></g>
<g><path style="opacity:1" fill="#333d42" d="M 131.5,216.5 C 136.64,215.512 141.974,215.179 147.5,215.5C 147.737,216.791 147.404,217.791 146.5,218.5C 141.944,216.558 136.944,215.892 131.5,216.5 Z"/></g>
<g><path style="opacity:1" fill="#c8cbcc" d="M 102.5,216.5 C 102.5,217.167 102.5,217.833 102.5,218.5C 97.0784,217.856 91.5784,217.522 86,217.5C 80.4543,217.505 75.2876,218.172 70.5,219.5C 69.596,218.791 69.2627,217.791 69.5,216.5C 80.5,216.5 91.5,216.5 102.5,216.5 Z"/></g>
<g><path style="opacity:1" fill="#c0c3c4" d="M 219.5,220.5 C 218.596,219.791 218.263,218.791 218.5,217.5C 207.5,217.5 196.5,217.5 185.5,217.5C 185.737,218.791 185.404,219.791 184.5,220.5C 184.5,219.167 184.5,217.833 184.5,216.5C 196.167,216.5 207.833,216.5 219.5,216.5C 219.5,217.833 219.5,219.167 219.5,220.5 Z"/></g>
<g><path style="opacity:1" fill="#bbbfc0" d="M 258.5,219.5 C 255.316,217.586 251.649,216.92 247.5,217.5C 247.405,219.786 246.738,221.786 245.5,223.5C 245.674,221.139 246.007,218.806 246.5,216.5C 250.833,216.5 255.167,216.5 259.5,216.5C 259.737,217.791 259.404,218.791 258.5,219.5 Z"/></g>
<g><path style="opacity:1" fill="#fafafa" d="M 349.5,261.5 C 348.076,263.515 347.41,265.848 347.5,268.5C 342.948,288.552 330.615,300.718 310.5,305C 273.49,311.155 257.156,295.655 261.5,258.5C 262.924,256.485 263.59,254.152 263.5,251.5C 268.338,232.496 280.338,220.663 299.5,216C 336.489,209.164 353.156,224.33 349.5,261.5 Z"/></g>
<g><path style="opacity:1" fill="#c6c9cb" d="M 432.5,218.5 C 432.167,218.5 431.833,218.5 431.5,218.5C 407.339,217.502 383.006,217.169 358.5,217.5C 358.737,218.791 358.404,219.791 357.5,220.5C 357.5,219.167 357.5,217.833 357.5,216.5C 382.856,215.843 407.856,216.509 432.5,218.5 Z"/></g>
<g><path style="opacity:1" fill="#fafafa" d="M 131.5,216.5 C 136.944,215.892 141.944,216.558 146.5,218.5C 134.863,235.657 123.363,252.99 112,270.5C 110.957,273.757 110.457,277.09 110.5,280.5C 109.076,282.515 108.41,284.848 108.5,287.5C 106.739,292.91 105.739,298.577 105.5,304.5C 95.5,304.5 85.5,304.5 75.5,304.5C 76.9593,295.457 78.626,286.457 80.5,277.5C 81.9238,275.485 82.5905,273.152 82.5,270.5C 82.634,268.708 82.3007,267.042 81.5,265.5C 81.5905,262.848 80.9238,260.515 79.5,258.5C 78.1483,251.76 76.4816,245.093 74.5,238.5C 74.5905,235.848 73.9238,233.515 72.5,231.5C 72.4349,228.572 71.7682,225.905 70.5,223.5C 70.5,222.167 70.5,220.833 70.5,219.5C 75.2876,218.172 80.4543,217.505 86,217.5C 91.5784,217.522 97.0784,217.856 102.5,218.5C 104.106,221.986 105.106,225.653 105.5,229.5C 105.259,231.898 105.926,233.898 107.5,235.5C 108.657,238.273 109.324,241.273 109.5,244.5C 109.264,247.226 110.097,249.559 112,251.5C 113.039,250.756 113.539,249.756 113.5,248.5C 119.5,237.833 125.5,227.167 131.5,216.5 Z"/></g>
<g><path style="opacity:1" fill="#fafafa" d="M 219.5,220.5 C 221.962,230.691 224.295,241.024 226.5,251.5C 226.742,255.479 227.742,259.146 229.5,262.5C 229.5,262.833 229.5,263.167 229.5,263.5C 229.294,266.495 229.96,269.162 231.5,271.5C 231.5,271.833 231.5,272.167 231.5,272.5C 231.5,275.167 231.5,277.833 231.5,280.5C 232.5,280.5 233.5,280.5 234.5,280.5C 234.5,278.833 234.5,277.167 234.5,275.5C 237.638,262.613 240.305,249.613 242.5,236.5C 243.924,234.485 244.59,232.152 244.5,229.5C 244.517,227.435 244.85,225.435 245.5,223.5C 246.738,221.786 247.405,219.786 247.5,217.5C 251.649,216.92 255.316,217.586 258.5,219.5C 254.491,241.214 250.158,262.881 245.5,284.5C 244.076,286.515 243.41,288.848 243.5,291.5C 243.167,293.5 242.833,295.5 242.5,297.5C 240.72,298.99 240.054,300.99 240.5,303.5C 229.419,303.81 218.419,303.477 207.5,302.5C 207.5,302.167 207.5,301.833 207.5,301.5C 207.59,298.848 206.924,296.515 205.5,294.5C 205.212,291.061 204.546,287.728 203.5,284.5C 203.59,281.848 202.924,279.515 201.5,277.5C 201.634,275.708 201.301,274.042 200.5,272.5C 200.59,269.848 199.924,267.515 198.5,265.5C 198.309,262.017 197.643,258.684 196.5,255.5C 196.59,252.848 195.924,250.515 194.5,248.5C 194.785,246.712 194.452,245.045 193.5,243.5C 190.697,249.129 189.03,255.129 188.5,261.5C 187.232,263.905 186.565,266.572 186.5,269.5C 186.5,269.833 186.5,270.167 186.5,270.5C 185.419,273.627 184.753,276.96 184.5,280.5C 182.203,288.251 180.537,296.251 179.5,304.5C 175.5,304.5 171.5,304.5 167.5,304.5C 167.993,302.194 168.326,299.861 168.5,297.5C 169.13,292.088 170.13,286.755 171.5,281.5C 174.035,277.645 175.035,273.312 174.5,268.5C 177.211,252.328 180.545,236.328 184.5,220.5C 185.404,219.791 185.737,218.791 185.5,217.5C 196.5,217.5 207.5,217.5 218.5,217.5C 218.263,218.791 218.596,219.791 219.5,220.5 Z"/></g>
<g><path style="opacity:1" fill="#fbfbfb" d="M 431.5,218.5 C 431.244,220.937 430.577,223.271 429.5,225.5C 422.011,226.167 414.678,226.833 407.5,227.5C 406.164,234.17 404.831,240.837 403.5,247.5C 402.232,249.905 401.565,252.572 401.5,255.5C 397.659,271.706 394.325,288.04 391.5,304.5C 381.5,304.5 371.5,304.5 361.5,304.5C 361.5,303.5 361.5,302.5 361.5,301.5C 363.04,299.162 363.706,296.495 363.5,293.5C 363.833,291.5 364.167,289.5 364.5,287.5C 365.924,285.485 366.59,283.152 366.5,280.5C 366.205,278.265 366.539,276.265 367.5,274.5C 368.924,272.485 369.59,270.152 369.5,267.5C 371.96,254.121 374.627,240.788 377.5,227.5C 370.687,226.509 363.687,226.175 356.5,226.5C 356.5,225.5 356.5,224.5 356.5,223.5C 356.263,222.209 356.596,221.209 357.5,220.5C 358.404,219.791 358.737,218.791 358.5,217.5C 383.006,217.169 407.339,217.502 431.5,218.5 Z"/></g>
<g><path style="opacity:1" fill="#7b8084" d="M 356.5,223.5 C 356.5,224.5 356.5,225.5 356.5,226.5C 363.687,226.175 370.687,226.509 377.5,227.5C 370.167,227.5 362.833,227.5 355.5,227.5C 355.232,225.901 355.566,224.568 356.5,223.5 Z"/></g>
<g><path style="opacity:1" fill="#747a7e" d="M 431.5,218.5 C 431.833,218.5 432.167,218.5 432.5,218.5C 432.452,221.313 431.785,223.979 430.5,226.5C 422.862,227.497 415.196,227.831 407.5,227.5C 414.678,226.833 422.011,226.167 429.5,225.5C 430.577,223.271 431.244,220.937 431.5,218.5 Z"/></g>
<g><path style="opacity:1" fill="#888d90" d="M 153.5,220.5 C 152.541,230.216 151.207,239.883 149.5,249.5C 152.833,249.5 156.167,249.5 159.5,249.5C 156.038,250.482 152.371,250.815 148.5,250.5C 149.421,240.249 151.088,230.249 153.5,220.5 Z"/></g>
<g><path style="opacity:1" fill="#071117" d="M 317.5,226.5 C 318.434,234.111 318.767,241.778 318.5,249.5C 317.087,254.63 316.087,259.963 315.5,265.5C 315.5,266.167 315.5,266.833 315.5,267.5C 313.462,271.94 311.796,276.607 310.5,281.5C 308.218,285.893 305.552,290.059 302.5,294C 299.335,296.13 296.335,295.963 293.5,293.5C 291.072,283.233 290.906,272.9 293,262.5C 295.49,251.695 299.156,241.361 304,231.5C 306.194,229.306 308.36,227.14 310.5,225C 313.171,224.167 315.504,224.667 317.5,226.5 Z"/></g>
<g><path style="opacity:1" fill="#5b6367" d="M 317.5,226.5 C 318.117,226.611 318.617,226.944 319,227.5C 319.822,235.012 319.655,242.345 318.5,249.5C 318.767,241.778 318.434,234.111 317.5,226.5 Z"/></g>
<g><path style="opacity:1" fill="#8c9194" d="M 105.5,229.5 C 107.074,231.102 107.741,233.102 107.5,235.5C 105.926,233.898 105.259,231.898 105.5,229.5 Z"/></g>
<g><path style="opacity:1" fill="#777d81" d="M 244.5,229.5 C 244.59,232.152 243.924,234.485 242.5,236.5C 242.41,233.848 243.076,231.515 244.5,229.5 Z"/></g>
<g><path style="opacity:1" fill="#545b60" d="M 72.5,231.5 C 73.9238,233.515 74.5905,235.848 74.5,238.5C 73.0762,236.485 72.4095,234.152 72.5,231.5 Z"/></g>
<g><path style="opacity:1" fill="#979c9e" d="M 109.5,244.5 C 110.793,245.842 111.626,247.509 112,249.5C 112.383,248.944 112.883,248.611 113.5,248.5C 113.539,249.756 113.039,250.756 112,251.5C 110.097,249.559 109.264,247.226 109.5,244.5 Z"/></g>
<g><path style="opacity:1" fill="#636a6e" d="M 194.5,248.5 C 195.924,250.515 196.59,252.848 196.5,255.5C 195.076,253.485 194.41,251.152 194.5,248.5 Z"/></g>
<g><path style="opacity:1" fill="#7a8083" d="M 226.5,251.5 C 228.258,254.854 229.258,258.521 229.5,262.5C 227.742,259.146 226.742,255.479 226.5,251.5 Z"/></g>
<g><path style="opacity:1" fill="#454c51" d="M 403.5,247.5 C 404.036,250.698 403.369,253.365 401.5,255.5C 401.565,252.572 402.232,249.905 403.5,247.5 Z"/></g>
<g><path style="opacity:1" fill="#8f9497" d="M 318.5,249.5 C 318.773,255.216 317.773,260.549 315.5,265.5C 316.087,259.963 317.087,254.63 318.5,249.5 Z"/></g>
<g><path style="opacity:1" fill="#747a7e" d="M 263.5,251.5 C 263.59,254.152 262.924,256.485 261.5,258.5C 261.41,255.848 262.076,253.515 263.5,251.5 Z"/></g>
<g><path style="opacity:1" fill="#4d555a" d="M 79.5,258.5 C 80.9238,260.515 81.5905,262.848 81.5,265.5C 80.0762,263.485 79.4095,261.152 79.5,258.5 Z"/></g>
<g><path style="opacity:1" fill="#4e555a" d="M 349.5,261.5 C 349.59,264.152 348.924,266.485 347.5,268.5C 347.41,265.848 348.076,263.515 349.5,261.5 Z"/></g>
<g><path style="opacity:1" fill="#4a5257" d="M 188.5,261.5 C 189.036,264.698 188.369,267.365 186.5,269.5C 186.565,266.572 187.232,263.905 188.5,261.5 Z"/></g>
<g><path style="opacity:1" fill="#6b7276" d="M 229.5,263.5 C 230.768,265.905 231.435,268.572 231.5,271.5C 229.96,269.162 229.294,266.495 229.5,263.5 Z"/></g>
<g><path style="opacity:1" fill="#999da0" d="M 315.5,267.5 C 314.991,272.703 313.324,277.37 310.5,281.5C 311.796,276.607 313.462,271.94 315.5,267.5 Z"/></g>
<g><path style="opacity:1" fill="#535a5f" d="M 198.5,265.5 C 199.924,267.515 200.59,269.848 200.5,272.5C 199.076,270.485 198.41,268.152 198.5,265.5 Z"/></g>
<g><path style="opacity:1" fill="#8e9396" d="M 369.5,267.5 C 369.59,270.152 368.924,272.485 367.5,274.5C 367.41,271.848 368.076,269.515 369.5,267.5 Z"/></g>
<g><path style="opacity:1" fill="#b3b7b9" d="M 174.5,268.5 C 175.035,273.312 174.035,277.645 171.5,281.5C 172.34,277.015 173.34,272.681 174.5,268.5 Z"/></g>
<g><path style="opacity:1" fill="#8b9094" d="M 82.5,270.5 C 82.5905,273.152 81.9238,275.485 80.5,277.5C 80.4095,274.848 81.0762,272.515 82.5,270.5 Z"/></g>
<g><path style="opacity:1" fill="#434b50" d="M 186.5,270.5 C 186.664,273.187 186.497,275.854 186,278.5C 185.722,279.416 185.222,280.082 184.5,280.5C 184.753,276.96 185.419,273.627 186.5,270.5 Z"/></g>
<g><path style="opacity:1" fill="#a7acae" d="M 231.5,272.5 C 232.302,273.952 232.802,275.618 233,277.5C 233.278,276.584 233.778,275.918 234.5,275.5C 234.5,277.167 234.5,278.833 234.5,280.5C 233.5,280.5 232.5,280.5 231.5,280.5C 231.5,277.833 231.5,275.167 231.5,272.5 Z"/></g>
<g><path style="opacity:1" fill="#5e666a" d="M 201.5,277.5 C 202.924,279.515 203.59,281.848 203.5,284.5C 202.076,282.485 201.41,280.152 201.5,277.5 Z"/></g>
<g><path style="opacity:1" fill="#5f666b" d="M 110.5,280.5 C 110.59,283.152 109.924,285.485 108.5,287.5C 108.41,284.848 109.076,282.515 110.5,280.5 Z"/></g>
<g><path style="opacity:1" fill="#72787c" d="M 366.5,280.5 C 366.59,283.152 365.924,285.485 364.5,287.5C 364.41,284.848 365.076,282.515 366.5,280.5 Z"/></g>
<g><path style="opacity:1" fill="#71777b" d="M 245.5,284.5 C 245.59,287.152 244.924,289.485 243.5,291.5C 243.41,288.848 244.076,286.515 245.5,284.5 Z"/></g>
<g><path style="opacity:1" fill="#51595e" d="M 205.5,294.5 C 206.924,296.515 207.59,298.848 207.5,301.5C 206.076,299.485 205.41,297.152 205.5,294.5 Z"/></g>
<g><path style="opacity:1" fill="#747b7f" d="M 363.5,293.5 C 363.706,296.495 363.04,299.162 361.5,301.5C 361.565,298.572 362.232,295.905 363.5,293.5 Z"/></g>
<g><path style="opacity:1" fill="#696f74" d="M 168.5,297.5 C 168.326,299.861 167.993,302.194 167.5,304.5C 166.355,302.047 166.688,299.713 168.5,297.5 Z"/></g>
<g><path style="opacity:1" fill="#ced0d2" d="M 242.5,297.5 C 242.007,299.806 241.674,302.139 241.5,304.5C 229.784,305.144 218.451,304.478 207.5,302.5C 218.419,303.477 229.419,303.81 240.5,303.5C 240.054,300.99 240.72,298.99 242.5,297.5 Z"/></g>
<g><path style="opacity:1" fill="#0b3e44" d="M 133.5,314.5 C 126.833,314.5 120.167,314.5 113.5,314.5C 113.629,316.216 113.962,317.883 114.5,319.5C 112.72,318.01 112.054,316.01 112.5,313.5C 119.687,313.175 126.687,313.509 133.5,314.5 Z"/></g>
<g><path style="opacity:1" fill="#0a383e" d="M 179.5,314.5 C 171.427,313.868 163.76,314.535 156.5,316.5C 155.596,315.791 155.263,314.791 155.5,313.5C 163.684,313.174 171.684,313.508 179.5,314.5 Z"/></g>
<g><path style="opacity:1" fill="#0a383e" d="M 321.5,314.5 C 329.316,313.508 337.316,313.174 345.5,313.5C 345.737,314.791 345.404,315.791 344.5,316.5C 337.24,314.535 329.573,313.868 321.5,314.5 Z"/></g>
<g><path style="opacity:1" fill="#2bd0d6" d="M 381.5,330.5 C 374.833,330.5 368.167,330.5 361.5,330.5C 361.517,328.435 361.85,326.435 362.5,324.5C 363.547,321.404 364.88,318.404 366.5,315.5C 373.833,314.167 381.167,314.167 388.5,315.5C 385.96,320.479 383.626,325.479 381.5,330.5 Z"/></g>
<g><path style="opacity:1" fill="#29cfd8" d="M 133.5,314.5 C 137.817,321.793 142.15,329.126 146.5,336.5C 147.087,337.767 147.087,338.767 146.5,339.5C 139.935,338.977 133.435,338.643 127,338.5C 126.536,339.094 126.369,339.761 126.5,340.5C 125.115,339.426 123.949,338.093 123,336.5C 120.1,330.7 117.267,325.033 114.5,319.5C 113.962,317.883 113.629,316.216 113.5,314.5C 120.167,314.5 126.833,314.5 133.5,314.5 Z"/></g>
<g><path style="opacity:1" fill="#29d2db" d="M 179.5,314.5 C 186.197,323.194 194.197,330.527 203.5,336.5C 203.539,337.756 203.039,338.756 202,339.5C 194.667,339.5 187.333,339.5 180,339.5C 177.913,338.603 175.746,337.936 173.5,337.5C 167.114,331.049 161.447,324.049 156.5,316.5C 163.76,314.535 171.427,313.868 179.5,314.5 Z"/></g>
<g><path style="opacity:1" fill="#28ced8" d="M 321.5,314.5 C 329.573,313.868 337.24,314.535 344.5,316.5C 338.964,325.376 332.297,333.376 324.5,340.5C 324.189,339.522 323.522,338.855 322.5,338.5C 312.685,338.458 302.685,338.791 292.5,339.5C 303.666,333.007 313.333,324.674 321.5,314.5 Z"/></g>
<g><path style="opacity:1" fill="#21cee0" d="M 203.5,336.5 C 213.309,342.66 223.976,346.66 235.5,348.5C 235.918,349.222 236.584,349.722 237.5,350C 245.677,350.823 253.677,350.656 261.5,349.5C 272.07,347.266 282.404,343.933 292.5,339.5C 302.685,338.791 312.685,338.458 322.5,338.5C 323.522,338.855 324.189,339.522 324.5,340.5C 319.082,345.576 313.082,349.909 306.5,353.5C 269.832,353.333 233.165,353.5 196.5,354C 197.381,354.708 198.047,355.542 198.5,356.5C 188.901,351.863 180.567,345.53 173.5,337.5C 175.746,337.936 177.913,338.603 180,339.5C 187.333,339.5 194.667,339.5 202,339.5C 203.039,338.756 203.539,337.756 203.5,336.5 Z"/></g>
<g><path style="opacity:1" fill="#22cede" d="M 362.5,324.5 C 361.85,326.435 361.517,328.435 361.5,330.5C 368.167,330.5 374.833,330.5 381.5,330.5C 376.913,338.742 371.58,346.409 365.5,353.5C 357.493,353.666 349.493,353.5 341.5,353C 342.252,352.329 342.586,351.496 342.5,350.5C 349.662,342.155 356.329,333.489 362.5,324.5 Z"/></g>
<g><path style="opacity:1" fill="#148d9d" d="M 235.5,348.5 C 244.126,349.411 252.792,349.745 261.5,349.5C 253.677,350.656 245.677,350.823 237.5,350C 236.584,349.722 235.918,349.222 235.5,348.5 Z"/></g>
<g><path style="opacity:1" fill="#1dcde4" d="M 146.5,336.5 C 154.806,346.806 164.14,356.14 174.5,364.5C 173.669,368.51 171.836,369.177 169,366.5C 167.333,369.167 165.667,369.167 164,366.5C 162,369.167 160,369.167 158,366.5C 156.216,369.003 154.549,369.003 153,366.5C 151.812,367.563 151.312,368.897 151.5,370.5C 140.912,362.257 132.579,352.257 126.5,340.5C 126.369,339.761 126.536,339.094 127,338.5C 133.435,338.643 139.935,338.977 146.5,339.5C 147.087,338.767 147.087,337.767 146.5,336.5 Z"/></g>
<g><path style="opacity:1" fill="#1bcde5" d="M 306.5,353.5 C 296.743,359.212 286.41,363.545 275.5,366.5C 270.094,367.649 264.76,368.649 259.5,369.5C 253.5,369.5 247.5,369.5 241.5,369.5C 237.361,368.437 233.028,367.77 228.5,367.5C 217.759,365.655 207.759,361.989 198.5,356.5C 198.047,355.542 197.381,354.708 196.5,354C 233.165,353.5 269.832,353.333 306.5,353.5 Z"/></g>
<g><path style="opacity:1" fill="#17cae6" d="M 342.5,350.5 C 342.586,351.496 342.252,352.329 341.5,353C 349.493,353.5 357.493,353.666 365.5,353.5C 357.182,364.15 347.515,373.484 336.5,381.5C 324.963,381.159 313.63,380.159 302.5,378.5C 317.171,371.175 330.505,361.842 342.5,350.5 Z"/></g>
<g><path style="opacity:1" fill="#095969" d="M 228.5,367.5 C 233.028,367.77 237.361,368.437 241.5,369.5C 236.878,369.844 232.545,369.177 228.5,367.5 Z"/></g>
<g><path style="opacity:1" fill="#0d3b47" d="M 275.5,366.5 C 273.043,367.447 270.709,368.781 268.5,370.5C 265.579,369.593 262.579,369.26 259.5,369.5C 264.76,368.649 270.094,367.649 275.5,366.5 Z"/></g>
<g><path style="opacity:1" fill="#10c9ec" d="M 174.5,364.5 C 199.768,382.695 228.101,391.028 259.5,389.5C 265.537,389.874 271.203,388.874 276.5,386.5C 285.474,384.758 294.141,382.091 302.5,378.5C 313.63,380.159 324.963,381.159 336.5,381.5C 328.567,387.41 319.901,392.077 310.5,395.5C 308.369,394.686 306.036,394.186 303.5,394C 284.333,393.833 265.167,393.667 246,393.5C 226.488,393.5 207.322,394.167 188.5,395.5C 174.603,389.392 162.269,381.059 151.5,370.5C 151.312,368.897 151.812,367.563 153,366.5C 154.549,369.003 156.216,369.003 158,366.5C 160,369.167 162,369.167 164,366.5C 165.667,369.167 167.333,369.167 169,366.5C 171.836,369.177 173.669,368.51 174.5,364.5 Z"/></g>
<g><path style="opacity:1" fill="#0b8faa" d="M 276.5,386.5 C 271.203,388.874 265.537,389.874 259.5,389.5C 264.959,388.049 270.626,387.049 276.5,386.5 Z"/></g>
<g><path style="opacity:1" fill="#0ac7f2" d="M 310.5,395.5 C 310.5,395.833 310.5,396.167 310.5,396.5C 302.988,399.001 295.655,401.667 288.5,404.5C 286.708,404.366 285.042,404.699 283.5,405.5C 279.64,405.808 275.974,406.475 272.5,407.5C 258.912,408.481 245.246,408.815 231.5,408.5C 227.117,406.77 222.45,405.77 217.5,405.5C 215.901,405.768 214.568,405.434 213.5,404.5C 211.485,403.076 209.152,402.41 206.5,402.5C 200.067,401.013 194.067,398.68 188.5,395.5C 207.322,394.167 226.488,393.5 246,393.5C 265.167,393.667 284.333,393.833 303.5,394C 306.036,394.186 308.369,394.686 310.5,395.5 Z"/></g>
<g><path style="opacity:1" fill="#064a5b" d="M 310.5,396.5 C 303.878,400.797 296.545,403.464 288.5,404.5C 295.655,401.667 302.988,399.001 310.5,396.5 Z"/></g>
<g><path style="opacity:1" fill="#077089" d="M 206.5,402.5 C 209.152,402.41 211.485,403.076 213.5,404.5C 210.848,404.59 208.515,403.924 206.5,402.5 Z"/></g>
<g><path style="opacity:1" fill="#076177" d="M 217.5,405.5 C 222.45,405.77 227.117,406.77 231.5,408.5C 226.55,408.23 221.883,407.23 217.5,405.5 Z"/></g>
<g><path style="opacity:1" fill="#07576a" d="M 283.5,405.5 C 280.155,407.217 276.489,407.884 272.5,407.5C 275.974,406.475 279.64,405.808 283.5,405.5 Z"/></g>
</svg>
